<svg width="8" height="11" fill="none" xmlns="http://www.w3.org/2000/svg"><path fill-rule="evenodd" clip-rule="evenodd" d="M0 3.87C0 1.73 1.8 0 4 0s4 1.73 4 3.87c0 .7-.2 1.38-.56 1.98l-3.1 5a.34.34 0 0 1-.57 0L.6 5.9C.2 5.3 0 4.6 0 3.87Zm4.05 6.19 2.81-4.54c.31-.5.48-1.07.48-1.65A3.3 3.3 0 0 0 4 .64 3.3 3.3 0 0 0 .66 3.87c0 .6.18 1.18.5 1.7l2.89 4.49ZM2 3.86c0-1.06.9-1.93 2-1.93s2 .87 2 1.94C6 4.9 5.13 5.8 4 5.8c-1.12 0-2-.87-2-1.93Zm.66 0c0 .72.6 1.3 1.34 1.3.75 0 1.34-.6 1.34-1.3 0-.7-.6-1.29-1.34-1.29-.74 0-1.34.59-1.34 1.3Z" fill="#FA2744"/></svg>