<svg width="17" height="17" fill="none" xmlns="http://www.w3.org/2000/svg"><path d="M16.7 3.04A3.1 3.1 0 0 0 13.97.3 51.35 51.35 0 0 0 3.04.3 3.1 3.1 0 0 0 .3 3.04a51.35 51.35 0 0 0 0 10.92 3.1 3.1 0 0 0 2.75 2.75c3.64.39 7.28.39 10.92 0a3.1 3.1 0 0 0 2.75-2.75 51.1 51.1 0 0 0 0-10.92Z" fill="url(#a)"/><path d="M15.78 3.66a2.75 2.75 0 0 0-2.44-2.44 45.58 45.58 0 0 0-9.68 0 2.75 2.75 0 0 0-2.44 2.44 45.58 45.58 0 0 0 0 9.68 2.75 2.75 0 0 0 2.44 2.44c3.22.35 6.46.35 9.68 0a2.75 2.75 0 0 0 2.44-2.44c.35-3.22.35-6.46 0-9.68Z" fill="url(#b)"/><path d="m.25 13.6.04.36a3.1 3.1 0 0 0 2.75 2.75c3.64.39 7.28.39 10.92 0a3.1 3.1 0 0 0 2.75-2.75l.04-.35H.25Z" fill="url(#c)"/><path d="M16.7 13.96c.22-1.95.31-3.91.3-5.87l-3.9-3.88c-.48-.56-1.2-.9-2.03-.93a73.21 73.21 0 0 0-5.14 0c-1.42.05-2.42 1-2.68 2.4l-.1.76v4.12c.02.13.05.27.05.4a3 3 0 0 0 .98 2.08L8.14 17a51.4 51.4 0 0 0 5.82-.3 3.1 3.1 0 0 0 2.75-2.74Z" fill="url(#d)"/><path d="M16.7 13.96a3.1 3.1 0 0 1-2.74 2.75 54 54 0 0 1-5.82.29l-3.95-3.95c.46.4 1.06.64 1.75.67 1.71.07 3.43.06 5.14 0a2.75 2.75 0 0 0 2.72-2.75c.06-1.65.06-3.3 0-4.94a2.87 2.87 0 0 0-.69-1.82L17 8.09c.01 1.96-.08 3.92-.3 5.87Z" fill="url(#e)"/><path d="M10.5 6.66A2.72 2.72 0 0 0 5.79 8.5c0 .8.34 1.5.88 2l6.3 6.3c.33-.02.67-.06 1-.1a3.1 3.1 0 0 0 2.75-2.74l.1-1-6.3-6.3Z" fill="url(#f)"/><path d="M16.97 10.33 11.9 5.26a.65.65 0 1 0-.91.9l5.89 5.9c.04-.58.07-1.15.09-1.73Z" fill="url(#g)"/><path d="m3.16 6.44.1-.75c.26-1.4 1.26-2.36 2.68-2.41 1.71-.06 3.43-.07 5.14 0a2.75 2.75 0 0 1 2.72 2.75c.06 1.64.06 3.3 0 4.94a2.75 2.75 0 0 1-2.72 2.75c-1.7.06-3.43.07-5.14 0-1.55-.06-2.62-1.2-2.73-2.76 0-.13-.03-.27-.05-.4V6.44ZM8.5 12.8c.79 0 1.57.03 2.35 0 1.23-.05 1.99-.78 2.02-2 .03-1.54.03-3.07 0-4.6-.03-1.22-.79-1.97-2.02-2a111 111 0 0 0-4.67 0c-1.22.03-1.98.76-2.01 1.98-.04 1.54-.04 3.1 0 4.64.03 1.22.79 1.93 2 1.98.78.03 1.56 0 2.33 0Z" fill="url(#h)"/><path d="m3.16 6.44.1-.75c.26-1.4 1.26-2.36 2.68-2.41 1.71-.06 3.43-.07 5.14 0a2.75 2.75 0 0 1 2.72 2.75c.06 1.64.06 3.3 0 4.94a2.75 2.75 0 0 1-2.72 2.75c-1.7.06-3.43.07-5.14 0-1.55-.06-2.62-1.2-2.73-2.76 0-.13-.03-.27-.05-.4V6.44ZM8.5 12.8c.79 0 1.57.03 2.35 0 1.23-.05 1.99-.78 2.02-2 .03-1.54.03-3.07 0-4.6-.03-1.22-.79-1.97-2.02-2a111 111 0 0 0-4.67 0c-1.22.03-1.98.76-2.01 1.98-.04 1.54-.04 3.1 0 4.64.03 1.22.79 1.93 2 1.98.78.03 1.56 0 2.33 0Z" fill="white"/><path d="M8.5 5.78a2.72 2.72 0 1 0 0 5.44 2.72 2.72 0 0 0 0-5.44Zm0 4.5a1.79 1.79 0 1 1 0-3.57 1.79 1.79 0 0 1 0 3.58Z" fill="white"/><path d="M12.03 5.65a.65.65 0 1 1-1.3 0 .65.65 0 0 1 1.3 0Z" fill="white"/><defs><radialGradient id="a" cx="0" cy="0" r="1" gradientUnits="userSpaceOnUse" gradientTransform="translate(3.48 14.86) scale(18.748)"><stop stop-color="#FAE100"/><stop offset=".05" stop-color="#FADC04"/><stop offset=".12" stop-color="#FBCE0E"/><stop offset=".18" stop-color="#FCB720"/><stop offset=".25" stop-color="#FE9838"/><stop offset=".31" stop-color="#FF7950"/><stop offset=".49" stop-color="#FF1C74"/><stop offset="1" stop-color="#6C1CD1"/></radialGradient><linearGradient id="b" x1="6.52" y1="7.39" x2="-22.28" y2="-8.81" gradientUnits="userSpaceOnUse"><stop stop-color="#A1B5D8" stop-opacity="0"/><stop offset=".31" stop-color="#90A2BD" stop-opacity=".31"/><stop offset=".76" stop-color="#7C8B9C" stop-opacity=".76"/><stop offset="1" stop-color="#748290"/></linearGradient><linearGradient id="c" x1="8.5" y1="15.01" x2="8.5" y2="17.66" gradientUnits="userSpaceOnUse"><stop stop-color="#FAE100" stop-opacity="0"/><stop offset=".31" stop-color="#FCA800" stop-opacity=".31"/><stop offset=".63" stop-color="#FE7300" stop-opacity=".63"/><stop offset=".87" stop-color="#FF5200" stop-opacity=".87"/><stop offset="1" stop-color="#FF4500"/></linearGradient><linearGradient id="d" x1="7.53" y1="7.51" x2="3.33" y2="3.3" gradientUnits="userSpaceOnUse"><stop stop-color="#833AB4" stop-opacity="0"/><stop offset="1" stop-color="#833AB4"/></linearGradient><linearGradient id="e" x1="11.65" y1="15.55" x2="9.55" y2="5.65" gradientUnits="userSpaceOnUse"><stop stop-color="#833AB4" stop-opacity="0"/><stop offset="1" stop-color="#833AB4"/></linearGradient><linearGradient id="f" x1="12.45" y1="12.45" x2="4.02" y2="4.02" gradientUnits="userSpaceOnUse"><stop stop-color="#833AB4" stop-opacity="0"/><stop offset="1" stop-color="#833AB4"/></linearGradient><linearGradient id="g" x1="13.08" y1="7.35" x2="10.29" y2="4.56" gradientUnits="userSpaceOnUse"><stop stop-color="#833AB4" stop-opacity="0"/><stop offset="1" stop-color="#833AB4"/></linearGradient><linearGradient id="h" x1="11.88" y1="5.15" x2="5" y2="12.03" gradientUnits="userSpaceOnUse"><stop stop-color="#833AB4"/><stop offset=".09" stop-color="#9C3495"/><stop offset=".29" stop-color="#DC2546"/><stop offset=".39" stop-color="#FD1D1D"/><stop offset=".56" stop-color="#FC6831"/><stop offset=".69" stop-color="#FC9B40"/><stop offset=".75" stop-color="#FCAF45"/><stop offset=".78" stop-color="#FDB750"/><stop offset=".87" stop-color="#FECB6A"/><stop offset=".94" stop-color="#FFD87A"/><stop offset="1" stop-color="#FFDC80"/></linearGradient></defs></svg>