<svg width="27" height="26" fill="none" xmlns="http://www.w3.org/2000/svg"><g clip-path="url(#a)"><path d="M12.38 26a2.21 2.21 0 0 1-2.26-2.17 2.2 2.2 0 0 1 2.26-2.16 2.2 2.2 0 0 1 2.24 2.16c0 1.2-1 2.17-2.24 2.17Zm0-3.25a1.1 1.1 0 0 0-1.13 1.08c0 .6.5 1.09 1.13 1.09a1.1 1.1 0 0 0 1.12-1.09c0-.6-.5-1.08-1.13-1.08Z" fill="#FA2744"/><path d="M20.25 26A2.21 2.21 0 0 1 18 23.83c0-1.2 1-2.16 2.25-2.16 1.24 0 2.25.97 2.25 2.16 0 1.2-1 2.17-2.25 2.17Zm0-3.25a1.1 1.1 0 0 0-1.13 1.08c0 .6.5 1.09 1.13 1.09a1.1 1.1 0 0 0 1.13-1.09c0-.6-.5-1.08-1.13-1.08Z" fill="#FA2744"/><path d="M10.69 9.75H6.47a.55.55 0 0 1-.56-.54c0-.3.25-.54.56-.54h4.22c.3 0 .56.24.56.54 0 .3-.25.54-.56.54Z" fill="#FA2744"/><path d="M21.49 20.58H11.26a2.8 2.8 0 0 1-2.7-1.96L4.98 6.6c-.2-.7-.86-1.18-1.62-1.18H.56A.55.55 0 0 1 0 4.87c0-.3.25-.54.56-.54h2.8c1.26 0 2.37.81 2.7 1.97l3.58 12.02c.2.7.87 1.18 1.62 1.18H21.5c.7 0 1.34-.43 1.58-1.07l1.03-2.7c.1-.28.43-.43.72-.32.3.1.44.41.34.7l-1.03 2.69a2.83 2.83 0 0 1-2.64 1.78Z" fill="#FA2744"/><path d="M20.25 15.17a.56.56 0 0 1-.22-.05c-.27-.1-6.53-2.71-6.53-8.04V2.55c0-.23.15-.44.38-.51L20.07.03a.58.58 0 0 1 .36 0l6.19 2c.23.08.38.3.38.52v4.53c0 5.33-6.26 7.94-6.53 8.04a.58.58 0 0 1-.22.05ZM14.62 2.94v4.14c0 4.1 4.57 6.45 5.63 6.95 1.06-.5 5.63-2.86 5.63-6.95V2.94l-5.63-1.83-5.63 1.83Z" fill="#FA2744"/><path d="M19.69 9.75h-.03a.57.57 0 0 1-.41-.2L17 6.84a.53.53 0 0 1 .09-.76c.24-.19.6-.15.79.08l1.85 2.24 3.5-3.37a.58.58 0 0 1 .8 0c.21.21.21.56 0 .77l-3.95 3.8c-.1.1-.24.15-.4.15Z" fill="#FA2744"/><rect x="12" y="-2" width="15" height="16" fill="white"/><rect x="11" y="-1" width="12" height="17" fill="white"/><ellipse cx="19.75" cy="6.84" rx="6.75" ry="6.84" fill="#FA2744"/><path d="M21.34 7.18c0 .64-.1 1.1-.32 1.42-.22.3-.56.46-1.02.46-.45 0-.79-.15-1-.45-.23-.3-.34-.76-.35-1.36v-.72c0-.63.11-1.1.33-1.4.21-.3.55-.45 1.02-.45.46 0 .8.14 1.01.44.22.3.33.74.33 1.36v.7Zm-.54-.74c0-.46-.06-.8-.2-1-.12-.21-.32-.32-.6-.32-.28 0-.48.1-.6.31-.14.21-.2.53-.2.97v.87c0 .46.06.8.2 1.02.13.22.33.33.6.33.27 0 .47-.1.6-.31s.2-.54.2-.98v-.9Z" fill="white"/></g><defs><clipPath id="a"><rect width="27" height="26" fill="white"/></clipPath></defs></svg>