<svg width="8" height="11" viewBox="0 0 8 11" fill="none" xmlns="http://www.w3.org/2000/svg">
<path fill-rule="evenodd" clip-rule="evenodd" d="M0 3.86719C0 1.73482 1.7944 0 4 0C6.2056 0 8 1.73482 8 3.86719C8 4.56627 7.80491 5.25138 7.4358 5.84848L4.34151 10.8433C4.2818 10.9398 4.17442 10.9991 4.05818 11H4.05553C3.94029 11 3.83313 10.9424 3.77231 10.8477L0.597089 5.90073C0.206422 5.29074 0 4.58764 0 3.86719ZM4.05049 10.0587L6.86369 5.51757C7.17087 5.02064 7.33556 4.44987 7.33556 3.86719C7.33556 2.09021 5.838 0.640234 4 0.640234C2.162 0.640234 0.662222 2.09021 0.662222 3.86719C0.662222 4.46768 0.838534 5.05343 1.16371 5.56114L4.05049 10.0587ZM2 3.86719C2 2.801 2.8972 1.93359 4 1.93359C5.1028 1.93359 6 2.801 6 3.86719C6 4.91492 5.13118 5.80078 4 5.80078C2.8826 5.80078 2 4.92656 2 3.86719ZM2.66222 3.86719C2.66222 4.57976 3.26096 5.16055 4 5.16055C4.75076 5.16055 5.33556 4.56936 5.33556 3.86719C5.33556 3.1564 4.7352 2.57383 4 2.57383C3.2648 2.57383 2.66222 3.1564 2.66222 3.86719Z" fill="#FA2744"/>
</svg>
