<svg width="17" height="17" viewBox="0 0 17 17" fill="none" xmlns="http://www.w3.org/2000/svg">
<path d="M16.709 3.04068C16.5542 1.5909 15.4092 0.445648 13.9593 0.291046C10.3233 -0.0970154 6.67668 -0.0970154 3.04081 0.291046C1.5909 0.445778 0.445778 1.5909 0.291046 3.04068C-0.0970154 6.67655 -0.0970154 10.3233 0.291046 13.9592C0.445778 15.4091 1.5909 16.5542 3.04068 16.709C6.67655 17.097 10.3233 17.097 13.9593 16.709C15.4092 16.5542 16.5542 15.4091 16.709 13.9592C17.097 10.3233 17.097 6.67668 16.709 3.04068Z" fill="url(#paint0_radial_32_43)"/>
<path d="M15.7845 3.65558C15.6472 2.36908 14.6312 1.35289 13.3446 1.21553C10.1181 0.871311 6.88214 0.871311 3.65573 1.21553C2.36924 1.35289 1.35304 2.36908 1.21569 3.65558C0.871464 6.88199 0.871464 10.118 1.21569 13.3443C1.35304 14.6309 2.36924 15.6471 3.65573 15.7843C6.88214 16.1287 10.1181 16.1287 13.3444 15.7843C14.631 15.6471 15.6472 14.6309 15.7845 13.3443C16.1288 10.118 16.1288 6.88199 15.7845 3.65558Z" fill="url(#paint1_linear_32_43)"/>
<path d="M0.254639 13.6068C0.266312 13.7243 0.278374 13.8418 0.290955 13.9593C0.445686 15.4091 1.59081 16.5542 3.04072 16.7089C6.67659 17.097 10.3234 17.097 13.9592 16.7089C15.4091 16.5542 16.5541 15.4091 16.7089 13.9593C16.7214 13.8418 16.7335 13.7243 16.7453 13.6068H0.254639Z" fill="url(#paint2_linear_32_43)"/>
<path d="M16.7089 13.9592C16.9175 12.0055 17.0137 10.0487 16.9981 8.09219L13.1123 4.20639C12.6269 3.65218 11.9178 3.30627 11.0846 3.27631C9.37114 3.21458 7.65223 3.21769 5.93851 3.27657C4.51518 3.3256 3.51987 4.28226 3.26462 5.68834C3.21961 5.93658 3.19263 6.18807 3.15723 6.43813V10.5602C3.17681 10.6938 3.2056 10.8268 3.21455 10.9612C3.27162 11.8164 3.62311 12.5489 4.18587 13.0445L8.14016 16.9987C10.0807 17.0123 12.0214 16.9158 13.9593 16.7089C15.4092 16.5542 16.5542 15.4091 16.7089 13.9592Z" fill="url(#paint3_linear_32_43)"/>
<path d="M16.7088 13.9593C16.5542 15.409 15.4088 16.5544 13.9592 16.709C12.0216 16.9157 10.0805 17.0123 8.14021 16.9987L4.19189 13.0504C4.6496 13.451 5.24622 13.695 5.93856 13.7211C7.65189 13.7854 9.37119 13.7837 11.0845 13.722C12.6342 13.6659 13.7556 12.519 13.8039 10.9694C13.8556 9.32398 13.8556 7.67433 13.8039 6.02896C13.7819 5.31406 13.5309 4.68501 13.1148 4.20901L16.9982 8.09235C17.0135 10.0486 16.9173 12.0057 16.7088 13.9593Z" fill="url(#paint4_linear_32_43)"/>
<path d="M10.506 6.65916C10.0082 6.11714 9.29391 5.77707 8.50002 5.77707C6.99628 5.77707 5.7771 6.99625 5.7771 8.49999C5.7771 9.29388 6.11717 10.0081 6.65919 10.5059L12.9591 16.8058C13.2925 16.7768 13.626 16.7445 13.9592 16.7089C15.4091 16.5542 16.5542 15.4091 16.709 13.9592C16.7445 13.626 16.7768 13.2925 16.8059 12.9591L10.506 6.65916Z" fill="url(#paint5_linear_32_43)"/>
<path d="M16.9671 10.3312L11.8969 5.26112C11.7786 5.10587 11.5922 5.0051 11.382 5.0051C11.0243 5.0051 10.7341 5.2951 10.7341 5.65294C10.7341 5.86319 10.8349 6.04956 10.9902 6.16785L16.8764 12.0543C16.9164 11.4801 16.9466 10.9056 16.9671 10.3312Z" fill="url(#paint6_linear_32_43)"/>
<path d="M3.15723 6.43813C3.19263 6.18807 3.21961 5.93658 3.26462 5.68833C3.51974 4.28226 4.51518 3.3256 5.93851 3.27657C7.65223 3.21769 9.37114 3.21458 11.0846 3.27631C12.6337 3.33208 13.7556 4.47915 13.804 6.0288C13.8555 7.67429 13.8555 9.32381 13.804 10.9693C13.7556 12.519 12.6341 13.6659 11.0847 13.7218C9.37127 13.7837 7.65197 13.7852 5.93864 13.7209C4.38924 13.6627 3.31818 12.513 3.21455 10.961C3.2056 10.8268 3.17681 10.6937 3.15723 10.5601C3.15723 9.18607 3.15723 7.81204 3.15723 6.43813ZM8.50137 12.8034C9.28554 12.8034 10.0705 12.8269 10.8536 12.7979C12.0815 12.7524 12.8367 12.0196 12.8654 10.7929C12.9009 9.26441 12.9009 7.73383 12.8654 6.20519C12.8367 4.97875 12.081 4.22883 10.8536 4.20276C9.29578 4.16981 7.73627 4.17007 6.17845 4.20276C4.96044 4.22831 4.203 4.96306 4.16992 6.17601C4.1279 7.72384 4.1279 9.2744 4.16992 10.8222C4.203 12.0351 4.96044 12.7528 6.17858 12.7979C6.95185 12.8267 7.72707 12.8034 8.50137 12.8034Z" fill="url(#paint7_linear_32_43)"/>
<path d="M3.15723 6.43813C3.19263 6.18807 3.21961 5.93658 3.26462 5.68833C3.51974 4.28226 4.51518 3.3256 5.93851 3.27657C7.65223 3.21769 9.37114 3.21458 11.0846 3.27631C12.6337 3.33208 13.7556 4.47915 13.804 6.0288C13.8555 7.67429 13.8555 9.32381 13.804 10.9693C13.7556 12.519 12.6341 13.6659 11.0847 13.7218C9.37127 13.7837 7.65197 13.7852 5.93864 13.7209C4.38924 13.6627 3.31818 12.513 3.21455 10.961C3.2056 10.8268 3.17681 10.6937 3.15723 10.5601C3.15723 9.18607 3.15723 7.81204 3.15723 6.43813ZM8.50137 12.8034C9.28554 12.8034 10.0705 12.8269 10.8536 12.7979C12.0815 12.7524 12.8367 12.0196 12.8654 10.7929C12.9009 9.26441 12.9009 7.73383 12.8654 6.20519C12.8367 4.97875 12.081 4.22883 10.8536 4.20276C9.29578 4.16981 7.73627 4.17007 6.17845 4.20276C4.96044 4.22831 4.203 4.96306 4.16992 6.17601C4.1279 7.72384 4.1279 9.2744 4.16992 10.8222C4.203 12.0351 4.96044 12.7528 6.17858 12.7979C6.95185 12.8267 7.72707 12.8034 8.50137 12.8034Z" fill="white"/>
<path d="M8.50001 5.77719C6.99628 5.77719 5.7771 6.99624 5.7771 8.49998C5.7771 10.0038 6.99628 11.2229 8.50001 11.2229C10.0039 11.2229 11.2229 10.0038 11.2229 8.49998C11.2229 6.99624 10.0039 5.77719 8.50001 5.77719ZM8.50001 10.2854C7.51391 10.2854 6.71457 9.48608 6.71457 8.49998C6.71457 7.51387 7.51391 6.71453 8.50001 6.71453C9.48612 6.71453 10.2855 7.51387 10.2855 8.49998C10.2855 9.48608 9.48612 10.2854 8.50001 10.2854Z" fill="white"/>
<path d="M12.0295 5.65295C12.0295 6.01066 11.7394 6.30067 11.3817 6.30067C11.024 6.30067 10.7339 6.01066 10.7339 5.65295C10.7339 5.29511 11.024 5.0051 11.3817 5.0051C11.7394 5.0051 12.0295 5.29511 12.0295 5.65295Z" fill="white"/>
<defs>
<radialGradient id="paint0_radial_32_43" cx="0" cy="0" r="1" gradientUnits="userSpaceOnUse" gradientTransform="translate(3.4849 14.8567) scale(18.748)">
<stop stop-color="#FAE100"/>
<stop offset="0.0544" stop-color="#FADC04"/>
<stop offset="0.1167" stop-color="#FBCE0E"/>
<stop offset="0.1829" stop-color="#FCB720"/>
<stop offset="0.2514" stop-color="#FE9838"/>
<stop offset="0.3054" stop-color="#FF7950"/>
<stop offset="0.4922" stop-color="#FF1C74"/>
<stop offset="1" stop-color="#6C1CD1"/>
</radialGradient>
<linearGradient id="paint1_linear_32_43" x1="6.52033" y1="7.38635" x2="-22.2797" y2="-8.81366" gradientUnits="userSpaceOnUse">
<stop stop-color="#A1B5D8" stop-opacity="0"/>
<stop offset="0.3094" stop-color="#90A2BD" stop-opacity="0.309804"/>
<stop offset="0.7554" stop-color="#7C8B9C" stop-opacity="0.756863"/>
<stop offset="1" stop-color="#748290"/>
</linearGradient>
<linearGradient id="paint2_linear_32_43" x1="8.49992" y1="15.0067" x2="8.49992" y2="17.6565" gradientUnits="userSpaceOnUse">
<stop stop-color="#FAE100" stop-opacity="0"/>
<stop offset="0.3068" stop-color="#FCA800" stop-opacity="0.305882"/>
<stop offset="0.6275" stop-color="#FE7300" stop-opacity="0.627451"/>
<stop offset="0.8685" stop-color="#FF5200" stop-opacity="0.866667"/>
<stop offset="1" stop-color="#FF4500"/>
</linearGradient>
<linearGradient id="paint3_linear_32_43" x1="7.53282" y1="7.50879" x2="3.32559" y2="3.30156" gradientUnits="userSpaceOnUse">
<stop stop-color="#833AB4" stop-opacity="0"/>
<stop offset="1" stop-color="#833AB4"/>
</linearGradient>
<linearGradient id="paint4_linear_32_43" x1="11.6508" y1="15.5486" x2="9.55093" y2="5.6491" gradientUnits="userSpaceOnUse">
<stop stop-color="#833AB4" stop-opacity="0"/>
<stop offset="1" stop-color="#833AB4"/>
</linearGradient>
<linearGradient id="paint5_linear_32_43" x1="12.45" y1="12.45" x2="4.01563" y2="4.01561" gradientUnits="userSpaceOnUse">
<stop stop-color="#833AB4" stop-opacity="0"/>
<stop offset="1" stop-color="#833AB4"/>
</linearGradient>
<linearGradient id="paint6_linear_32_43" x1="13.0757" y1="7.3466" x2="10.2866" y2="4.55752" gradientUnits="userSpaceOnUse">
<stop stop-color="#833AB4" stop-opacity="0"/>
<stop offset="1" stop-color="#833AB4"/>
</linearGradient>
<linearGradient id="paint7_linear_32_43" x1="11.8753" y1="5.14809" x2="4.99844" y2="12.025" gradientUnits="userSpaceOnUse">
<stop stop-color="#833AB4"/>
<stop offset="0.0922" stop-color="#9C3495"/>
<stop offset="0.2927" stop-color="#DC2546"/>
<stop offset="0.392" stop-color="#FD1D1D"/>
<stop offset="0.5589" stop-color="#FC6831"/>
<stop offset="0.6887" stop-color="#FC9B40"/>
<stop offset="0.7521" stop-color="#FCAF45"/>
<stop offset="0.7806" stop-color="#FDB750"/>
<stop offset="0.8656" stop-color="#FECB6A"/>
<stop offset="0.9415" stop-color="#FFD87A"/>
<stop offset="1" stop-color="#FFDC80"/>
</linearGradient>
</defs>
</svg>
