<svg width="17" height="21" viewBox="0 0 17 21" fill="none" xmlns="http://www.w3.org/2000/svg">
<path d="M16.6624 0.694163C16.4905 0.434903 16.259 0.245308 15.9684 0.125036C15.7834 0.0418569 15.5894 0.000194457 15.3867 0.000194457V0H1.53329C1.33064 0 1.13688 0.0416624 0.951775 0.124841C0.661015 0.245016 0.429611 0.434855 0.257794 0.693969C0.086024 0.953083 0 1.23981 0 1.55449V19.4455C0 19.7602 0.086024 20.0469 0.257794 20.3062C0.429611 20.5653 0.661015 20.7551 0.951775 20.8752C1.13669 20.9584 1.33064 21 1.53329 21C1.94763 21 2.31316 20.8472 2.63049 20.5421L8.46004 14.6568L14.2896 20.5422C14.5981 20.8379 14.9638 20.986 15.3866 20.986C15.607 20.986 15.8009 20.9492 15.9684 20.8752C16.259 20.755 16.4905 20.5652 16.6624 20.3058C16.8341 20.0468 16.92 19.7601 16.92 19.4454V1.55468C16.92 1.24 16.834 0.953277 16.6624 0.694163ZM15.2281 19.0149L9.63655 13.3798L8.46004 12.2002L7.28362 13.3798L1.69215 19.0149V1.7768H15.2281V19.0149Z" fill="#FA2744"/>
</svg>
