<svg width="17" height="17" viewBox="0 0 17 17" fill="none" xmlns="http://www.w3.org/2000/svg">
<path d="M8.5 17C13.1944 17 17 13.1944 17 8.5C17 3.80558 13.1944 0 8.5 0C3.80558 0 0 3.80558 0 8.5C0 13.1944 3.80558 17 8.5 17Z" fill="#039BE5"/>
<path d="M3.88952 8.3158L12.0849 5.15592C12.4653 5.01851 12.7975 5.24871 12.6743 5.82388L12.675 5.82317L11.2796 12.3972C11.1761 12.8633 10.8992 12.9766 10.5117 12.757L8.38673 11.1909L7.36177 12.1783C7.24844 12.2917 7.15281 12.3873 6.93323 12.3873L7.08411 10.2248L11.0224 6.6668C11.1939 6.51592 10.9842 6.43092 10.7582 6.58109L5.89127 9.64534L3.79319 8.99084C3.33773 8.84634 3.32781 8.53538 3.88952 8.3158V8.3158Z" fill="white"/>
</svg>
