<svg width="27" height="26" viewBox="0 0 27 26" fill="none" xmlns="http://www.w3.org/2000/svg">
<g clip-path="url(#clip0_32_21)">
<path d="M12.375 26C11.1341 26 10.125 25.0282 10.125 23.8333C10.125 22.6384 11.1341 21.6667 12.375 21.6667C13.6159 21.6667 14.625 22.6384 14.625 23.8333C14.625 25.0282 13.6159 26 12.375 26ZM12.375 22.75C11.754 22.75 11.25 23.2364 11.25 23.8333C11.25 24.4302 11.754 24.9167 12.375 24.9167C12.996 24.9167 13.5 24.4302 13.5 23.8333C13.5 23.2364 12.996 22.75 12.375 22.75Z" fill="#FA2744"/>
<path d="M20.25 26C19.0091 26 18 25.0282 18 23.8333C18 22.6384 19.0091 21.6667 20.25 21.6667C21.4909 21.6667 22.5 22.6384 22.5 23.8333C22.5 25.0282 21.4909 26 20.25 26ZM20.25 22.75C19.629 22.75 19.125 23.2364 19.125 23.8333C19.125 24.4302 19.629 24.9167 20.25 24.9167C20.871 24.9167 21.375 24.4302 21.375 23.8333C21.375 23.2364 20.871 22.75 20.25 22.75Z" fill="#FA2744"/>
<path d="M10.6875 9.74999H6.46875C6.15825 9.74999 5.90625 9.50732 5.90625 9.20832C5.90625 8.90932 6.15825 8.66666 6.46875 8.66666H10.6875C10.998 8.66666 11.25 8.90932 11.25 9.20832C11.25 9.50732 10.998 9.74999 10.6875 9.74999Z" fill="#FA2744"/>
<path d="M21.4875 20.5833H11.2613C10.0069 20.5833 8.89538 19.7741 8.56013 18.616L4.98375 6.59531C4.78125 5.89981 4.11637 5.41665 3.36375 5.41665H0.5625C0.252 5.41665 0 5.17398 0 4.87498C0 4.57598 0.252 4.33331 0.5625 4.33331H3.36375C4.61812 4.33331 5.72962 5.14256 6.06487 6.30065L9.64125 18.3213C9.84375 19.0168 10.5086 19.5 11.2613 19.5H21.4875C22.1917 19.5 22.8296 19.0677 23.0749 18.4253L24.0975 15.7289C24.2044 15.4483 24.5273 15.3042 24.8197 15.4061C25.1111 15.509 25.2619 15.8199 25.155 16.1005L24.1324 18.798C23.724 19.8661 22.662 20.5833 21.4875 20.5833Z" fill="#FA2744"/>
<path d="M20.25 15.1658C20.1757 15.1658 20.1015 15.1517 20.0317 15.1224C19.764 15.0152 13.5 12.4076 13.5 7.07978V2.55253C13.5 2.3207 13.6541 2.11378 13.8825 2.03903L20.07 0.0272778C20.187 -0.0106388 20.3141 -0.0106388 20.43 0.0272778L26.6175 2.03903C26.8459 2.11378 27 2.3207 27 2.55253V7.07978C27 12.4076 20.736 15.0152 20.4683 15.1235C20.3985 15.1517 20.3243 15.1658 20.25 15.1658ZM14.625 2.94145V7.07978C14.625 11.1802 19.1869 13.5343 20.25 14.0283C21.312 13.5332 25.875 11.1704 25.875 7.07978V2.94145L20.25 1.11278L14.625 2.94145Z" fill="#FA2744"/>
<path d="M19.6875 9.74999C19.6773 9.74999 19.6661 9.74999 19.6571 9.74891C19.4962 9.74024 19.3488 9.66657 19.2487 9.54632L16.9987 6.83799C16.8052 6.60399 16.8435 6.26383 17.0865 6.07641C17.3317 5.89008 17.6838 5.92799 17.8773 6.16091L19.7336 8.39691L23.2267 5.03316C23.4461 4.82191 23.8027 4.82191 24.0221 5.03316C24.2415 5.24441 24.2415 5.58783 24.0221 5.79908L20.0846 9.59074C19.98 9.69366 19.836 9.74999 19.6875 9.74999Z" fill="#FA2744"/>
<rect x="12" y="-2" width="15" height="16" fill="white"/>
<rect x="11" y="-1" width="12" height="17" fill="white"/>
<ellipse cx="19.75" cy="6.84211" rx="6.75" ry="6.84211" fill="#FA2744"/>
<path d="M21.3447 7.18066C21.3447 7.81543 21.2363 8.28711 21.0195 8.5957C20.8027 8.9043 20.4639 9.05859 20.0029 9.05859C19.5479 9.05859 19.2109 8.9082 18.9922 8.60742C18.7734 8.30469 18.6602 7.85352 18.6523 7.25391V6.53027C18.6523 5.90332 18.7607 5.4375 18.9775 5.13281C19.1943 4.82812 19.5342 4.67578 19.9971 4.67578C20.4561 4.67578 20.7939 4.82324 21.0107 5.11816C21.2275 5.41113 21.3389 5.86426 21.3447 6.47754V7.18066ZM20.8027 6.43945C20.8027 5.98047 20.7383 5.64648 20.6094 5.4375C20.4805 5.22656 20.2764 5.12109 19.9971 5.12109C19.7197 5.12109 19.5176 5.22559 19.3906 5.43457C19.2637 5.64355 19.1982 5.96484 19.1943 6.39844V7.26562C19.1943 7.72656 19.2607 8.06738 19.3936 8.28809C19.5283 8.50684 19.7314 8.61621 20.0029 8.61621C20.2705 8.61621 20.4688 8.5127 20.5977 8.30566C20.7285 8.09863 20.7969 7.77246 20.8027 7.32715V6.43945Z" fill="white"/>
</g>
<defs>
<clipPath id="clip0_32_21">
<rect width="27" height="26" fill="white"/>
</clipPath>
</defs>
</svg>
