<svg width="12" height="12" viewBox="0 0 12 12" fill="none" xmlns="http://www.w3.org/2000/svg">
<g clip-path="url(#clip0_32_13)">
<path d="M8.30359 7.12077C9.74406 5.0867 9.26229 2.27011 7.22822 0.829981C5.19415 -0.610145 2.37756 -0.128727 0.937434 1.90569C-0.502693 3.93976 -0.0212742 6.75601 2.01314 8.19613C3.46497 9.22401 5.38445 9.30315 6.91577 8.39882L10.243 11.7061C10.6023 12.0843 11.2 12.0994 11.5782 11.7402C11.9564 11.3813 11.9715 10.7835 11.6126 10.4054C11.6013 10.3933 11.5902 10.3823 11.5782 10.3709L8.30359 7.12077ZM4.61776 7.4291C3.01039 7.42944 1.70722 6.12731 1.70619 4.51994C1.70585 2.91257 3.00798 1.6094 4.61569 1.60872C6.22099 1.60803 7.52347 2.9081 7.52657 4.5134C7.52932 6.12111 6.22788 7.42634 4.61982 7.4291C4.61913 7.4291 4.61879 7.4291 4.61776 7.4291Z" fill="#FA2744"/>
</g>
<defs>
<clipPath id="clip0_32_13">
<rect width="12" height="12" fill="white"/>
</clipPath>
</defs>
</svg>
